{
    "accessors" : [
        {
            "bufferView" : 0, 
            "componentType" : 5123, 
            "count" : 56724, 
            "max" : [
                51691
            ], 
            "min" : [
                0
            ], 
            "type" : "SCALAR"
        }, 
        {
            "bufferView" : 1, 
            "componentType" : 5126, 
            "count" : 51692, 
            "max" : [
                0.17305511236190796, 
                2.106473445892334, 
                0.17305511236190796
            ], 
            "min" : [
                -0.17305511236190796, 
                -2.2413265705108643, 
                -0.17305511236190796
            ], 
            "type" : "VEC3"
        }, 
        {
            "bufferView" : 2, 
            "componentType" : 5126, 
            "count" : 51692, 
            "max" : [
                1.0, 
                1.0, 
                1.0
            ], 
            "min" : [
                -1.0, 
                -1.0, 
                -1.0
            ], 
            "type" : "VEC3"
        }
    ], 
    "asset" : {
        "generator" : "Khronos Blender glTF 2.0 exporter", 
        "version" : "2.0"
    }, 
    "bufferViews" : [
        {
            "buffer" : 0, 
            "byteLength" : 113448, 
            "byteOffset" : 0, 
            "target" : 34963
        }, 
        {
            "buffer" : 0, 
            "byteLength" : 620304, 
            "byteOffset" : 113448, 
            "target" : 34962
        }, 
        {
            "buffer" : 0, 
            "byteLength" : 620304, 
            "byteOffset" : 733752, 
            "target" : 34962
        }
    ], 
    "buffers" : [
        {
            "byteLength" : 1354056, 
            "uri" : "flute.bin"
        }
    ], 
    "meshes" : [
        {
            "name" : "Recorder1", 
            "primitives" : [
                {
                    "attributes" : {
                        "NORMAL" : 2, 
                        "POSITION" : 1
                    }, 
                    "indices" : 0
                }
            ]
        }
    ], 
    "nodes" : [
        {
            "mesh" : 0, 
            "name" : "Recorder1"
        }
    ], 
    "scene" : 0, 
    "scenes" : [
        {
            "name" : "Scene", 
            "nodes" : [
                0
            ]
        }
    ]
}
