{
    "accessors" : [
        {
            "bufferView" : 0, 
            "componentType" : 5123, 
            "count" : 1098, 
            "max" : [
                489
            ], 
            "min" : [
                0
            ], 
            "type" : "SCALAR"
        }, 
        {
            "bufferView" : 1, 
            "componentType" : 5126, 
            "count" : 490, 
            "max" : [
                29.700000762939453, 
                0.1899999976158142, 
                -0.30000001192092896
            ], 
            "min" : [
                1.3000000715255737, 
                0.1899999976158142, 
                -29.80000114440918
            ], 
            "type" : "VEC3"
        }, 
        {
            "bufferView" : 2, 
            "componentType" : 5126, 
            "count" : 490, 
            "max" : [
                0.0, 
                1.0, 
                -0.0
            ], 
            "min" : [
                0.0, 
                0.9999999403953552, 
                -0.0
            ], 
            "type" : "VEC3"
        }
    ], 
    "asset" : {
        "generator" : "Khronos Blender glTF 2.0 exporter", 
        "version" : "2.0"
    }, 
    "bufferViews" : [
        {
            "buffer" : 0, 
            "byteLength" : 2196, 
            "byteOffset" : 0, 
            "target" : 34963
        }, 
        {
            "buffer" : 0, 
            "byteLength" : 5880, 
            "byteOffset" : 2196, 
            "target" : 34962
        }, 
        {
            "buffer" : 0, 
            "byteLength" : 5880, 
            "byteOffset" : 8076, 
            "target" : 34962
        }
    ], 
    "buffers" : [
        {
            "byteLength" : 13956, 
            "uri" : "maze_nav-mesh.bin"
        }
    ], 
    "meshes" : [
        {
            "name" : "Navmesh.003", 
            "primitives" : [
                {
                    "attributes" : {
                        "NORMAL" : 2, 
                        "POSITION" : 1
                    }, 
                    "indices" : 0
                }
            ]
        }
    ], 
    "nodes" : [
        {
            "mesh" : 0, 
            "name" : "Navmesh.001"
        }
    ], 
    "scene" : 0, 
    "scenes" : [
        {
            "name" : "Scene", 
            "nodes" : [
                0
            ]
        }
    ]
}
