{
    "accessors" : [
        {
            "bufferView" : 0, 
            "componentType" : 5123, 
            "count" : 1665, 
            "max" : [
                780
            ], 
            "min" : [
                0
            ], 
            "type" : "SCALAR"
        }, 
        {
            "bufferView" : 1, 
            "componentType" : 5126, 
            "count" : 781, 
            "max" : [
                30.700000762939453, 
                3.190000057220459, 
                -0.30000001192092896
            ], 
            "min" : [
                0.30000001192092896, 
                3.190000057220459, 
                -30.700000762939453
            ], 
            "type" : "VEC3"
        }, 
        {
            "bufferView" : 2, 
            "componentType" : 5126, 
            "count" : 781, 
            "max" : [
                -0.0, 
                1.0, 
                -0.0
            ], 
            "min" : [
                -0.0, 
                0.9999999403953552, 
                -0.0
            ], 
            "type" : "VEC3"
        }
    ], 
    "asset" : {
        "generator" : "Khronos Blender glTF 2.0 exporter", 
        "version" : "2.0"
    }, 
    "bufferViews" : [
        {
            "buffer" : 0, 
            "byteLength" : 3330, 
            "byteOffset" : 0, 
            "target" : 34963
        }, 
        {
            "buffer" : 0, 
            "byteLength" : 9372, 
            "byteOffset" : 3332, 
            "target" : 34962
        }, 
        {
            "buffer" : 0, 
            "byteLength" : 9372, 
            "byteOffset" : 12704, 
            "target" : 34962
        }
    ], 
    "buffers" : [
        {
            "byteLength" : 22076, 
            "uri" : "maze_map.bin"
        }
    ], 
    "meshes" : [
        {
            "name" : "Navmesh.004", 
            "primitives" : [
                {
                    "attributes" : {
                        "NORMAL" : 2, 
                        "POSITION" : 1
                    }, 
                    "indices" : 0
                }
            ]
        }
    ], 
    "nodes" : [
        {
            "mesh" : 0, 
            "name" : "Navmesh.002"
        }
    ], 
    "scene" : 0, 
    "scenes" : [
        {
            "name" : "Scene", 
            "nodes" : [
                0
            ]
        }
    ]
}
