{
    "accessors" : [
        {
            "bufferView" : 0, 
            "componentType" : 5123, 
            "count" : 8508, 
            "max" : [
                4597
            ], 
            "min" : [
                0
            ], 
            "type" : "SCALAR"
        }, 
        {
            "bufferView" : 1, 
            "componentType" : 5126, 
            "count" : 4598, 
            "max" : [
                1220.4720458984375, 
                118.11019897460938, 
                -0.0
            ], 
            "min" : [
                0.0, 
                -0.39370080828666687, 
                -1220.4720458984375
            ], 
            "type" : "VEC3"
        }, 
        {
            "bufferView" : 2, 
            "componentType" : 5126, 
            "count" : 4598, 
            "max" : [
                1.0, 
                1.0, 
                1.0
            ], 
            "min" : [
                -1.0, 
                -1.0, 
                -1.0
            ], 
            "type" : "VEC3"
        }
    ], 
    "asset" : {
        "generator" : "Khronos Blender glTF 2.0 exporter", 
        "version" : "2.0"
    }, 
    "bufferViews" : [
        {
            "buffer" : 0, 
            "byteLength" : 17016, 
            "byteOffset" : 0, 
            "target" : 34963
        }, 
        {
            "buffer" : 0, 
            "byteLength" : 55176, 
            "byteOffset" : 17016, 
            "target" : 34962
        }, 
        {
            "buffer" : 0, 
            "byteLength" : 55176, 
            "byteOffset" : 72192, 
            "target" : 34962
        }
    ], 
    "buffers" : [
        {
            "byteLength" : 127368, 
            "uri" : "maze.bin"
        }
    ], 
    "materials" : [
        {
            "name" : "material", 
            "pbrMetallicRoughness" : {
                "metallicFactor" : 0.0
            }
        }
    ], 
    "meshes" : [
        {
            "name" : "ID3", 
            "primitives" : [
                {
                    "attributes" : {
                        "NORMAL" : 2, 
                        "POSITION" : 1
                    }, 
                    "indices" : 0, 
                    "material" : 0
                }
            ]
        }
    ], 
    "nodes" : [
        {
            "mesh" : 0, 
            "name" : "SketchUp", 
            "scale" : [
                0.02539999969303608, 
                0.02539999969303608, 
                0.02539999969303608
            ]
        }
    ], 
    "scene" : 0, 
    "scenes" : [
        {
            "name" : "Scene", 
            "nodes" : [
                0
            ]
        }
    ]
}
